<svg id="Layer_1" data-name="Layer 1" xmlns="http://www.w3.org/2000/svg" viewBox="0 0 386 174.36"><defs><style>.cls-1{fill:#8f6f53;}.cls-2{fill:#333;}.cls-3{fill:#c2a68b;}.cls-4{fill:#e8d8c9;}</style></defs><path class="cls-1" d="M579.52,468c-4.54-.6-111-15.33-104.12-67.67,3.07-23.49,14.85-43,35-57.86,16.32-12.07,38.17-20.9,63.19-25.53a101.23,101.23,0,0,1,18.34-1.64c37.71,0,68.85,19.52,70.15,20.35l1.61,1,29.8,92.8L580.74,468.15Z" transform="translate(-430.38 -310.31)"/><path class="cls-1" d="M447.25,463.86c-2.66,0-11.5-.58-13.77-6a6.41,6.41,0,0,1,1.41-7c4.08-4.23,21-7.33,21.18-7.36l1.21-.19,12.2,3.81V463l-4.93.29c-.43,0-10.52.63-16.32.63Z" transform="translate(-430.38 -310.31)"/><path class="cls-1" d="M449.45,434.24c-13.14,0-16.13-1-17.95-3.87a6.59,6.59,0,0,1-.67-6.05c1.52-3.76,5.79-4.79,8.9-5.54,3.84-.93,14.55-1.06,16.65-1.08h1.69l13.15,9.24-6.11,4.3a16.53,16.53,0,0,1-8.68,2.94l-1.65,0C453.42,434.21,451.52,434.24,449.45,434.24Z" transform="translate(-430.38 -310.31)"/><path class="cls-1" d="M457.35,450c-19.46-.53-21.55-1.3-22.34-1.6a6.43,6.43,0,0,1-4.38-5.61c-.28-3.71,2.58-6.66,5.35-8.19,3.46-1.91,12.94-2.5,16-2.5a19.47,19.47,0,0,1,3.15.2l.77.12L481.57,445,458,450Z" transform="translate(-430.38 -310.31)"/><path class="cls-1" d="M468.31,467.89a32.09,32.09,0,0,1-10.69-1.49c-11.43-4.07-15.93-10.4-15.52-21.86.26-7.47,5.1-29.11,14.42-33.52,6.4-3,22.34-3.83,29.88-3.83,2.92,0,5.45.09,7.53.28.5,0,1,.07,1.58.07,7.17,0,15.78-3.47,17.55-4.72a5.87,5.87,0,0,1,4.4-1.89c1.44,0,5.25,0,24.06,13.64l2.25,1.63-1.27,41.29-4.29.68c-4,.63-39.06,6.18-43.34,6.49-.67,0-2.62.39-4.5.72C484.64,466.38,476,467.89,468.31,467.89Z" transform="translate(-430.38 -310.31)"/><path class="cls-1" d="M585.46,484.67a197.63,197.63,0,0,1-22.19-1.54l-2.8-.32c-10.47-1.05-30.29-16.7-32.11-30.87-1.62-12.53,2.86-33.68,21.84-40.59a37.29,37.29,0,0,1,12.69-2.05c12.3,0,24.19,4.79,27.27,6.13a137.22,137.22,0,0,1,21.44,5.05c16.46,5.44,25,13,25.4,22.4.82,19.68-10.77,28.16-24.86,36.46-6.08,3.59-14.81,5.33-26.68,5.33Z" transform="translate(-430.38 -310.31)"/><path class="cls-1" d="M692.83,481.27c-27.89,0-64.66-2.17-81.48-12.52C587.47,454.06,576.26,431,575,393.88c-.49-14.11,6.9-31.22,20.27-46.92,12.73-15,29.1-26.4,43.79-30.59,13.32-3.79,34.51-6.06,56.67-6.06,14.82,0,55.61,1.23,73.67,12.18,24.37,14.76,47,46.59,47,61,0,.71,0,6.11,0,7,.1,14.24-1.9,46.16-19.87,59.64-19.18,14.38-43.74,29.27-80.58,30.68C708.07,481.12,700.3,481.27,692.83,481.27Z" transform="translate(-430.38 -310.31)"/><path class="cls-1" d="M543.53,466.7a82.42,82.42,0,0,1-13.21-1.54c-8.21-1.58-11.75-3.34-13.05-6.48a6,6,0,0,1,1.37-6.58c2.9-2.9,10.79-4.36,23.48-4.36h.57l22.6,5-6.76,6.76C557.8,460.26,551.13,466.7,543.53,466.7Z" transform="translate(-430.38 -310.31)"/><path class="cls-2" d="M459.43,422s-12,.1-15.46.93-6.28,1.75-5.05,3.66,17.67,1.38,20.51,1.38a11.58,11.58,0,0,0,5.66-2Z" transform="translate(-430.38 -310.31)"/><path class="cls-3" d="M662.27,339.07s-41-26.07-84.72-18-87.7,31.16-93.94,78.91,99.6,61.79,99.6,61.79l106.71-36.62Z" transform="translate(-430.38 -310.31)"/><path class="cls-2" d="M459.88,447.67c-4.36.68-16.22,3.75-18.21,5.81s3.22,4.06,8.65,4.13,16.91-.61,16.91-.61v-7Z" transform="translate(-430.38 -310.31)"/><path class="cls-2" d="M457.28,436.46c-3.06-.5-13.54.49-15.76,1.72s-3.75,3.52-1.69,4.28,20.67,1.27,20.67,1.27l8.11-1.73Z" transform="translate(-430.38 -310.31)"/><path class="cls-1" d="M482.94,408.91a32.19,32.19,0,0,0,4.33,10.24l22.3,2.94,13.22-9.87-2.36-6.73a1.83,1.83,0,0,0-2.27-1.15c-17,5.21-18,4.63-33.78,4.1C483.87,408.51,481,406.5,482.94,408.91Z" transform="translate(-430.38 -310.31)"/><path class="cls-1" d="M588.37,414.69c-18.44-4.37-24.72-4.06-28.39-3-4.13,1.2-9.11,2.56-12.28,5.7-10.54,10.45,1.95,13.81,1.95,13.81l41.25-.61,7.51-7.12Z" transform="translate(-430.38 -310.31)"/><path class="cls-3" d="M540.39,452s-38.72,6.13-42.91,6.44-25.4,5.48-35.1,2-12.34-8.05-12-16.72,5.62-26.22,11.43-29,25.61-3.88,34.69-3.06,21.94-4.29,23.47-6.33,21.51,12.45,21.51,12.45Z" transform="translate(-430.38 -310.31)"/><path class="cls-2" d="M545.12,452s-16.94,0-19.76,2.82,15.52,5.64,21.17,5.64,11.29-5.64,11.29-5.64Z" transform="translate(-430.38 -310.31)"/><path class="cls-2" d="M546.36,423.33s-13.85-1-15.92,0c-3.6,1.76,18.91,15.95,18.91,15.95L556.41,428Z" transform="translate(-430.38 -310.31)"/><path class="cls-2" d="M542.29,437.87s-12.7-1.41-15.52-1.41-2.83,5.64,14.11,12.7,12.7-8.47,12.7-8.47Z" transform="translate(-430.38 -310.31)"/><path class="cls-3" d="M591.69,419.52s-21.17-9.88-36.69-4.23-19.93,23.38-18.44,35,19.49,25.52,27.43,26.32,35.39,5,48.49-2.77,23-14.78,22.27-31.72S591.69,419.52,591.69,419.52Z" transform="translate(-430.38 -310.31)"/><path class="cls-1" d="M630.62,321.53s-14.21,7.66-24.27,19-21.6,27.92-24.46,38-3.39,30.73,1.44,44,7.4,18.55,9.35,21.32c5.13,7.27,13.67,16.72,18,19.55S624,470,624,470l31.19-116.81Z" transform="translate(-430.38 -310.31)"/><path class="cls-3" d="M796.36,444.93c-16.94,12.7-40.94,28.23-77.63,29.64s-83.28,0-101.63-11.29-32.46-29.64-33.87-70.58c-1-27.38,31.57-64.1,60.25-72.28s97.77-9.06,121.8,5.51,46.6,48.42,46.6,59.72S813.29,432.22,796.36,444.93Z" transform="translate(-430.38 -310.31)"/><path class="cls-4" d="M810.5,414.55c-1.37-3.14-2.45-5.52-2.85-6.32-1.41-2.82-24-24-32.47-25.41s-40.93-4.23-63.51-2.82-45.17,7.06-54.81,14.79-25.64,45.9-21.41,60c2.23,7.44,10,13.71,16.77,18,20.52,2.47,45.18,2.61,66.51,1.79,36.69-1.41,60.69-16.94,77.63-29.64C804.87,438.54,808.75,426.44,810.5,414.55Z" transform="translate(-430.38 -310.31)"/><path class="cls-1" d="M691.91,405.41c-8.55-2.57-28.48-1.51-42.88-.27-8.43,14.62-16.78,39-13.58,49.67,2.23,7.44,10.12,14.42,16.93,18.68,3.41.41,6.39.71,10,1a90.71,90.71,0,0,1,10.52-3.1c16.29-3.18,26.07-16.58,31.71-20.82s8.47-18.35,8.57-23.25S706,409.64,691.91,405.41Z" transform="translate(-430.38 -310.31)"/><path class="cls-1" d="M807.65,408.23c-.5-1-3.67-4.31-7.92-8.23-9.7.5-25.42,2.05-30.19,6.82-7.06,7.06-9.88,19.76-5.65,29.64s11.29,16.94,15.53,18.35c.49.16,2.16,1.55,3,1.68,5.55-3.43,10.54-6.65,15-10,8.52-6.39,12.25-18.11,14-30C810,413.35,808.05,409,807.65,408.23Z" transform="translate(-430.38 -310.31)"/><path class="cls-2" d="M666.5,435.05c-3.15-3.16,2.82-4.24,4.24-2.83s8.46,5.65,15.52,4.24,7.07-3.1,11.3-5.08,4.93.28,2.46,2.68-6.7,8-13.76,8S670.74,439.28,666.5,435.05Z" transform="translate(-430.38 -310.31)"/><path class="cls-2" d="M773.59,436.36c-2.64-1.31-4.05-4.14.18-4.14s8.62,1,13.49-1.6,7.68-5.45,9.1-5.45-2.83,7.05-7.06,9.88S773.59,436.36,773.59,436.36Z" transform="translate(-430.38 -310.31)"/><path class="cls-2" d="M738.49,435.05c4.23,0,19.76,0,22.58,5.64s-4.23,14.34-11.29,19.17-24.67-.32-27.15-5.51-4.43-14.45,2.18-17.58S734.25,435.05,738.49,435.05Z" transform="translate(-430.38 -310.31)"/><path class="cls-4" d="M733.07,439.36a11.23,11.23,0,0,0-2.39.6,6.3,6.3,0,0,0-1.8,1.05,11.65,11.65,0,0,0-1.83,1.61,5.56,5.56,0,0,0-1.18,1.8,4,4,0,0,0-.25,1.3,1.29,1.29,0,0,0,1.09,1.14,1.88,1.88,0,0,0,1.88-.54,26.74,26.74,0,0,1,2-2.62,5.52,5.52,0,0,1,2.62-1.39c.65-.13,1.73-.37,2.42-.45a1,1,0,0,0,1.05-1.05c0-.66-.8-1-1.22-1.23A4.46,4.46,0,0,0,733.07,439.36Z" transform="translate(-430.38 -310.31)"/></svg>